<?xml version="1.0" encoding="utf-8"?>
<!-- Generator: Adobe Illustrator 16.0.0, SVG Export Plug-In . SVG Version: 6.00 Build 0)  -->
<!DOCTYPE svg PUBLIC "-//W3C//DTD SVG 1.1//EN" "http://www.w3.org/Graphics/SVG/1.1/DTD/svg11.dtd">
<svg version="1.1" id="Layer_1" xmlns="http://www.w3.org/2000/svg" xmlns:xlink="http://www.w3.org/1999/xlink" x="0px" y="0px"
	 width="196.1px" height="208px" viewBox="229.1 0 196.1 208" enable-background="new 229.1 0 196.1 208" xml:space="preserve">
<g id="Layer_1_1_">
	<polygon fill="#AD073D" points="281.741,5.154 281.741,53.383 281.741,53.383 330.077,101.613 330.077,53.383 	"/>
	<rect x="281.815" y="101.45" fill="#B31AAB" width="48.262" height="48.263"/>
	<polygon fill="#C4D600" points="330.077,53.384 330.077,149.713 378.241,101.548 	"/>
	<polygon fill="#57C1E8" points="330.079,149.695 281.813,149.695 281.813,198.062 	"/>
	<polygon fill="#AD073D" points="281.741,5.154 281.741,53.383 281.741,53.383 330.077,101.613 330.077,53.383 	"/>
	<rect x="281.815" y="101.45" fill="#B31AAB" width="48.264" height="48.263"/>
	<polygon fill="#C4D600" points="330.077,53.384 330.077,149.713 378.241,101.548 	"/>
	<polygon fill="#57C1E8" points="330.079,149.695 281.813,149.695 281.813,198.062 	"/>
</g>
<g id="Logo_Blanco" display="none">
	<polygon display="inline" fill="#AD073D" points="309.741,5.154 309.741,53.383 309.741,53.383 358.077,101.613 358.077,53.383 	
		"/>
	<rect x="309.815" y="101.45" display="inline" fill="#B31AAB" width="48.262" height="48.263"/>
	<polygon display="inline" fill="#C4D600" points="358.077,53.384 358.077,149.713 406.241,101.548 	"/>
	<polygon display="inline" fill="#57C1E8" points="358.079,149.695 309.813,149.695 309.813,198.062 	"/>
	<polygon display="inline" fill="#AD073D" points="309.741,5.154 309.741,53.383 309.741,53.383 358.077,101.613 358.077,53.383 	
		"/>
	<rect x="309.815" y="101.45" display="inline" fill="#B31AAB" width="48.264" height="48.263"/>
	<polygon display="inline" fill="#C4D600" points="358.077,53.384 358.077,149.713 406.241,101.548 	"/>
	<polygon display="inline" fill="#57C1E8" points="358.079,149.695 309.813,149.695 309.813,198.062 	"/>
	<g display="inline">
		<path fill="#FFFFFF" d="M56.158,113.386c-1.151-1.758-2.757-3.245-4.82-4.465c-2.064-1.218-4.413-1.825-7.051-1.825
			c-2.774-0.068-5.26,0.372-7.458,1.318c-2.199,0.947-4.076,2.268-5.631,3.957c-1.557,1.691-2.739,3.703-3.551,6.037
			s-1.218,4.854-1.218,7.56s0.406,5.226,1.218,7.56s1.994,4.348,3.551,6.037c1.556,1.69,3.433,3.011,5.631,3.957
			c2.198,0.947,4.684,1.387,7.458,1.318c2.638,0,4.987-0.609,7.051-1.826c2.063-1.218,3.669-2.705,4.82-4.465l5.479,4.16
			c-2.369,2.773-5.04,4.818-8.016,6.139c-2.978,1.318-6.088,2.012-9.334,2.079c-3.855,0.066-7.34-0.524-10.451-1.774
			c-3.112-1.25-5.767-2.992-7.965-5.227c-2.199-2.23-3.873-4.886-5.022-7.965c-1.151-3.077-1.725-6.408-1.725-9.993
			s0.574-6.916,1.725-9.993c1.149-3.078,2.824-5.733,5.022-7.967c2.198-2.232,4.853-3.973,7.965-5.225
			c3.111-1.251,6.596-1.842,10.451-1.775c3.247,0.068,6.357,0.761,9.334,2.079c2.976,1.319,5.647,3.366,8.016,6.138L56.158,113.386z
			"/>
		<path fill="#FFFFFF" d="M76.146,149.71H69.45V73.003h6.696V149.71z"/>
		<path fill="#FFFFFF" d="M99.481,83.962c0,1.419-0.508,2.587-1.522,3.5c-1.015,0.913-2.131,1.37-3.349,1.37
			c-1.217,0-2.334-0.457-3.348-1.37c-1.015-0.913-1.522-2.081-1.522-3.5c0-1.421,0.507-2.588,1.522-3.501
			c1.014-0.913,2.131-1.37,3.348-1.37c1.218,0,2.334,0.457,3.349,1.37S99.481,82.541,99.481,83.962z M97.959,149.71h-6.697v-47.485
			h6.697V149.71z"/>
		<path fill="#FFFFFF" d="M146.153,113.386c-1.151-1.758-2.757-3.245-4.82-4.465c-2.064-1.218-4.413-1.825-7.052-1.825
			c-2.774-0.068-5.26,0.372-7.458,1.318c-2.199,0.947-4.076,2.268-5.631,3.957c-1.557,1.691-2.739,3.703-3.551,6.037
			s-1.218,4.854-1.218,7.56s0.406,5.226,1.218,7.56s1.994,4.348,3.551,6.037c1.556,1.69,3.433,3.011,5.631,3.957
			c2.198,0.947,4.684,1.387,7.458,1.318c2.639,0,4.988-0.609,7.052-1.826c2.063-1.218,3.668-2.705,4.82-4.465l5.479,4.16
			c-2.369,2.773-5.04,4.818-8.016,6.139c-2.978,1.318-6.088,2.012-9.335,2.079c-3.855,0.066-7.339-0.524-10.451-1.774
			c-3.112-1.25-5.767-2.992-7.965-5.227c-2.199-2.23-3.873-4.886-5.022-7.965c-1.151-3.077-1.725-6.408-1.725-9.993
			s0.574-6.916,1.725-9.993c1.149-3.078,2.823-5.733,5.022-7.967c2.198-2.232,4.853-3.973,7.965-5.225
			c3.111-1.251,6.596-1.842,10.451-1.775c3.247,0.068,6.357,0.761,9.335,2.079c2.976,1.319,5.647,3.366,8.016,6.138L146.153,113.386
			z"/>
		<path fill="#FFFFFF" d="M164.619,123.634l22.423-21.409h10.045l-23.641,21.712l26.178,25.772h-10.35l-24.655-24.96v24.96h-6.697
			V73.003h6.697V123.634L164.619,123.634z"/>
		<path fill="#FFFFFF" d="M208.958,127.794c0.203,2.368,0.776,4.601,1.725,6.696c0.947,2.098,2.197,3.906,3.754,5.428
			c1.556,1.521,3.349,2.725,5.377,3.604s4.228,1.318,6.595,1.318c3.586,0,6.682-0.828,9.284-2.484
			c2.604-1.657,4.581-3.568,5.937-5.733l5.175,4.261c-2.841,3.587-5.97,6.157-9.386,7.711c-3.416,1.557-7.086,2.334-11.01,2.334
			c-3.517,0-6.781-0.626-9.789-1.876c-3.012-1.251-5.6-2.993-7.763-5.227c-2.166-2.231-3.873-4.869-5.124-7.913
			c-1.252-3.044-1.877-6.358-1.877-9.943s0.609-6.898,1.827-9.943c1.217-3.045,2.907-5.683,5.073-7.914
			c2.165-2.232,4.702-3.973,7.61-5.226c2.907-1.251,6.053-1.876,9.436-1.876c3.586,0,6.799,0.643,9.641,1.927
			c2.842,1.286,5.225,2.995,7.153,5.124c1.928,2.133,3.397,4.635,4.413,7.51c1.015,2.875,1.521,5.936,1.521,9.183v3.044h-39.572
			V127.794z M241.223,122.314c0-4.531-1.354-8.201-4.059-11.01c-2.707-2.806-6.492-4.211-11.363-4.211
			c-2.165,0-4.262,0.424-6.29,1.27c-2.03,0.847-3.806,1.979-5.327,3.398c-1.522,1.42-2.739,3.043-3.653,4.87
			c-0.913,1.826-1.369,3.722-1.369,5.683H241.223z"/>
		<path fill="#FFFFFF" d="M258.877,117.039c0-2.096-0.051-4.227-0.151-6.393c-0.103-2.164-0.187-4.974-0.254-8.422h6.595v8.828
			h0.204c0.472-1.284,1.149-2.52,2.028-3.704c0.879-1.183,1.943-2.248,3.195-3.196c1.252-0.946,2.707-1.707,4.363-2.283
			c1.656-0.573,3.534-0.861,5.633-0.861c1.893,0,3.551,0.202,4.971,0.608l-1.318,6.595c-0.88-0.338-2.166-0.508-3.855-0.508
			c-2.572,0-4.77,0.492-6.595,1.473c-1.827,0.981-3.349,2.231-4.565,3.754c-1.219,1.521-2.115,3.162-2.689,4.922
			c-0.575,1.758-0.861,3.448-0.861,5.072v26.786h-6.697v-32.671H258.877z"/>
	</g>
	<g display="inline">
		<path fill="#AD073D" d="M287.426,76.86h0.457c0.295,0,0.582-0.027,0.861-0.081c0.279-0.054,0.527-0.148,0.743-0.282
			c0.218-0.132,0.392-0.312,0.523-0.54c0.132-0.227,0.198-0.508,0.198-0.843c0-0.266-0.049-0.505-0.146-0.717
			c-0.1-0.212-0.232-0.392-0.404-0.54c-0.173-0.148-0.369-0.264-0.59-0.348c-0.222-0.083-0.455-0.125-0.699-0.125
			c-0.441,0-0.817,0.113-1.127,0.339s-0.543,0.54-0.699,0.942l-1.297-0.457c0.256-0.628,0.666-1.122,1.229-1.48
			c0.565-0.358,1.215-0.538,1.952-0.538c0.432,0,0.842,0.062,1.229,0.185s0.729,0.302,1.02,0.538
			c0.291,0.236,0.521,0.531,0.691,0.885s0.256,0.763,0.256,1.225c0,0.295-0.047,0.57-0.141,0.826
			c-0.094,0.256-0.221,0.487-0.383,0.694c-0.162,0.206-0.355,0.383-0.582,0.531c-0.227,0.148-0.473,0.255-0.736,0.324v0.03
			c0.305,0.059,0.588,0.162,0.848,0.309c0.261,0.147,0.482,0.331,0.67,0.552c0.187,0.221,0.334,0.473,0.441,0.757
			s0.162,0.593,0.162,0.926c0,0.52-0.098,0.979-0.292,1.375s-0.452,0.729-0.772,0.993c-0.321,0.264-0.692,0.466-1.114,0.603
			c-0.423,0.137-0.854,0.206-1.296,0.206c-0.825,0-1.553-0.187-2.182-0.56c-0.627-0.373-1.084-0.952-1.369-1.738l1.326-0.441
			c0.156,0.451,0.424,0.819,0.803,1.104c0.377,0.285,0.842,0.427,1.393,0.427c0.266,0,0.521-0.042,0.771-0.125
			s0.475-0.208,0.672-0.376c0.195-0.167,0.353-0.373,0.471-0.618c0.118-0.246,0.178-0.535,0.178-0.87
			c0-0.363-0.08-0.667-0.236-0.913c-0.156-0.245-0.36-0.444-0.61-0.596c-0.251-0.152-0.533-0.261-0.849-0.325
			c-0.312-0.063-0.623-0.096-0.926-0.096h-0.442L287.426,76.86L287.426,76.86z"/>
		<path fill="#AD073D" d="M296.454,76.654l0.017,0.03c0.146-0.088,0.344-0.157,0.589-0.206s0.48-0.074,0.707-0.074
			c0.451,0,0.876,0.081,1.273,0.243c0.396,0.162,0.744,0.388,1.039,0.678c0.293,0.29,0.523,0.636,0.69,1.038
			c0.167,0.403,0.251,0.839,0.251,1.311c0,0.521-0.091,0.994-0.271,1.421c-0.182,0.427-0.436,0.792-0.76,1.097
			s-0.703,0.541-1.142,0.708c-0.437,0.167-0.91,0.25-1.421,0.25c-0.521,0-1.002-0.086-1.443-0.257
			c-0.441-0.172-0.822-0.41-1.143-0.714c-0.317-0.304-0.568-0.668-0.75-1.09s-0.272-0.878-0.272-1.37
			c0-0.57,0.093-1.085,0.279-1.547c0.187-0.461,0.433-0.933,0.737-1.414l2.724-4.301h1.694L296.454,76.654z M295.262,79.732
			c0,0.305,0.052,0.592,0.154,0.862c0.104,0.271,0.25,0.503,0.441,0.7c0.191,0.197,0.42,0.354,0.686,0.471
			c0.265,0.118,0.56,0.177,0.883,0.177c0.324,0,0.617-0.054,0.877-0.162c0.261-0.108,0.486-0.263,0.678-0.464
			c0.191-0.201,0.339-0.437,0.441-0.707c0.104-0.27,0.154-0.567,0.154-0.891c0-0.314-0.052-0.604-0.154-0.869
			c-0.104-0.266-0.246-0.496-0.428-0.692c-0.182-0.196-0.404-0.348-0.67-0.457c-0.266-0.108-0.56-0.162-0.884-0.162
			c-0.323,0-0.621,0.054-0.892,0.162c-0.271,0.108-0.5,0.26-0.691,0.457c-0.191,0.197-0.339,0.427-0.441,0.692
			C295.313,79.114,295.262,79.408,295.262,79.732z"/>
		<path fill="#AD073D" d="M306.204,72.191c0.619,0,1.152,0.142,1.598,0.427c0.447,0.285,0.816,0.675,1.105,1.171
			s0.502,1.078,0.641,1.745c0.137,0.668,0.207,1.38,0.207,2.136c0,0.766-0.07,1.48-0.207,2.143
			c-0.139,0.662-0.352,1.242-0.641,1.738c-0.289,0.496-0.658,0.886-1.105,1.17c-0.445,0.285-0.979,0.427-1.598,0.427
			s-1.154-0.142-1.604-0.427c-0.452-0.285-0.822-0.675-1.112-1.17c-0.289-0.496-0.503-1.076-0.64-1.738
			c-0.138-0.663-0.207-1.377-0.207-2.143c0-0.756,0.069-1.468,0.207-2.136c0.137-0.667,0.351-1.249,0.64-1.745
			c0.29-0.496,0.66-0.886,1.112-1.171C305.049,72.333,305.586,72.191,306.204,72.191z M306.204,73.385
			c-0.433,0-0.785,0.14-1.061,0.419c-0.275,0.28-0.488,0.633-0.641,1.061c-0.153,0.428-0.258,0.891-0.316,1.392
			c-0.061,0.501-0.089,0.972-0.089,1.414s0.028,0.913,0.089,1.414c0.059,0.501,0.164,0.963,0.316,1.385
			c0.151,0.422,0.365,0.773,0.641,1.053c0.273,0.279,0.628,0.419,1.061,0.419c0.422,0,0.77-0.14,1.039-0.419
			c0.27-0.28,0.482-0.631,0.641-1.053c0.158-0.422,0.266-0.884,0.324-1.385c0.057-0.501,0.088-0.972,0.088-1.414
			s-0.029-0.913-0.088-1.414c-0.059-0.5-0.168-0.964-0.324-1.392c-0.158-0.428-0.371-0.78-0.641-1.061
			C306.973,73.524,306.625,73.385,306.204,73.385z"/>
	</g>
	<g display="inline">
		<path fill="#FFFFFF" d="M69.449,157.616h3.203l5.04,12.007h0.09l4.995-12.007h3.204v15.858H83.83v-13.037h-0.045l-5.354,13.037
			h-1.434l-5.354-13.037H71.6v13.037h-2.151V157.616z"/>
		<path fill="#FFFFFF" d="M94.313,157.616h1.949l6.787,15.858h-2.508l-1.59-3.92h-7.549l-1.567,3.92h-2.509L94.313,157.616z
			 M98.166,167.675l-2.957-7.28h-0.044l-3.002,7.28H98.166z"/>
		<path fill="#FFFFFF" d="M104.55,157.616h5.578c1.015,0,1.851,0.139,2.509,0.414c0.657,0.276,1.176,0.628,1.557,1.055
			c0.38,0.424,0.645,0.901,0.794,1.433c0.149,0.53,0.224,1.041,0.224,1.534c0,0.509-0.089,0.996-0.269,1.47
			c-0.179,0.469-0.437,0.894-0.773,1.274s-0.747,0.703-1.232,0.964c-0.486,0.262-1.027,0.422-1.624,0.48l4.502,7.234h-2.688
			l-4.032-6.988H106.7v6.988h-2.15V157.616z M106.701,164.605h2.822c0.418,0,0.833-0.033,1.243-0.102
			c0.411-0.068,0.776-0.191,1.097-0.371c0.321-0.179,0.579-0.438,0.773-0.771c0.193-0.336,0.291-0.771,0.291-1.311
			s-0.098-0.975-0.291-1.311c-0.194-0.336-0.452-0.594-0.773-0.773c-0.321-0.179-0.687-0.303-1.097-0.369
			c-0.411-0.066-0.825-0.101-1.243-0.101h-2.822V164.605z"/>
		<path fill="#FFFFFF" d="M117.677,157.616h2.15v6.854h0.179l7.011-6.854h3.001l-7.661,7.325l8.176,8.533h-3.136l-7.392-7.93h-0.179
			v7.93h-2.15L117.677,157.616L117.677,157.616z"/>
		<path fill="#FFFFFF" d="M131.632,157.616h10.237v2.016h-8.086v4.728h7.526v2.017h-7.526v5.084h8.49v2.017h-10.64L131.632,157.616
			L131.632,157.616z"/>
		<path fill="#FFFFFF" d="M148.074,159.632h-5.107v-2.016h12.365v2.016h-5.107v13.845h-2.151V159.632L148.074,159.632z"/>
		<path fill="#FFFFFF" d="M157.056,157.616h2.15v15.858h-2.15V157.616z"/>
		<path fill="#FFFFFF" d="M162.724,157.616h2.822l8.736,13.036h0.045v-13.036h2.15v15.858h-2.732l-8.826-13.037h-0.045v13.037h-2.15
			V157.616L162.724,157.616z"/>
		<path fill="#FFFFFF" d="M193.501,164.605v7.815c-0.389,0.241-0.829,0.449-1.322,0.628c-0.492,0.18-1.004,0.332-1.534,0.46
			c-0.531,0.126-1.068,0.22-1.613,0.28c-0.545,0.059-1.056,0.089-1.534,0.089c-1.345,0-2.542-0.226-3.595-0.672
			c-1.053-0.447-1.941-1.052-2.666-1.813c-0.725-0.762-1.277-1.646-1.658-2.654c-0.38-1.008-0.571-2.072-0.571-3.192
			c0-1.179,0.205-2.276,0.616-3.292s0.978-1.896,1.703-2.645c0.724-0.746,1.594-1.332,2.61-1.758
			c1.015-0.427,2.128-0.639,3.337-0.639c1.464,0,2.657,0.184,3.584,0.547c0.926,0.367,1.703,0.871,2.33,1.514l-1.523,1.635
			c-0.658-0.627-1.352-1.063-2.083-1.311c-0.733-0.246-1.501-0.369-2.308-0.369c-0.911,0-1.732,0.168-2.464,0.504
			s-1.359,0.789-1.882,1.354c-0.522,0.569-0.925,1.236-1.209,2.005c-0.284,0.77-0.426,1.587-0.426,2.453
			c0,0.896,0.157,1.729,0.471,2.498c0.313,0.77,0.746,1.438,1.299,2.005c0.552,0.568,1.202,1.013,1.948,1.332
			c0.747,0.321,1.56,0.483,2.442,0.483c0.761,0,1.482-0.072,2.162-0.215c0.68-0.143,1.258-0.348,1.736-0.615v-4.413h-3.517v-2.017
			h5.667V164.605z"/>
		<path fill="#FFFFFF" d="M202.976,157.616h5.264c0.985,0,1.975,0.165,2.969,0.493c0.993,0.328,1.889,0.824,2.688,1.488
			c0.799,0.666,1.443,1.493,1.938,2.487c0.494,0.992,0.74,2.146,0.74,3.46c0,1.33-0.246,2.487-0.74,3.473
			c-0.492,0.986-1.139,1.811-1.938,2.477c-0.799,0.664-1.695,1.161-2.688,1.488c-0.994,0.33-1.983,0.492-2.969,0.492h-5.264V157.616
			L202.976,157.616z M204.588,171.997h3.137c1.209,0,2.258-0.183,3.147-0.55c0.888-0.364,1.626-0.85,2.217-1.454
			c0.59-0.604,1.027-1.292,1.311-2.062c0.283-0.77,0.425-1.563,0.425-2.386c0-0.821-0.142-1.614-0.425-2.386
			c-0.284-0.77-0.721-1.455-1.311-2.061c-0.59-0.604-1.329-1.092-2.217-1.457c-0.89-0.363-1.938-0.548-3.147-0.548h-3.137V171.997z"
			/>
		<path fill="#FFFFFF" d="M221.411,173.477h-1.613v-15.859h1.613V173.477z"/>
		<path fill="#FFFFFF" d="M237.426,160.527c-0.535-0.565-1.178-1.016-1.926-1.344c-0.746-0.328-1.611-0.492-2.598-0.492
			c-1.017,0-1.927,0.188-2.734,0.56c-0.806,0.375-1.488,0.875-2.049,1.502s-0.988,1.354-1.287,2.185
			c-0.299,0.828-0.449,1.698-0.449,2.608c0,0.911,0.15,1.78,0.449,2.609s0.728,1.558,1.287,2.185
			c0.561,0.627,1.243,1.127,2.049,1.502c0.809,0.372,1.719,0.559,2.734,0.559c0.82,0,1.608-0.101,2.362-0.303
			c0.754-0.201,1.431-0.473,2.026-0.815v-5.312h-3.785v-1.477h5.397v7.771c-0.896,0.521-1.878,0.922-2.944,1.198
			c-1.067,0.275-2.088,0.414-3.058,0.414c-1.181,0-2.274-0.209-3.282-0.627s-1.882-0.997-2.619-1.735
			c-0.74-0.74-1.319-1.617-1.737-2.633c-0.418-1.015-0.626-2.128-0.626-3.338s0.207-2.322,0.626-3.338
			c0.418-1.016,0.997-1.895,1.737-2.632c0.737-0.739,1.611-1.318,2.619-1.735c1.008-0.419,2.103-0.627,3.282-0.627
			c1.269,0,2.362,0.176,3.28,0.525c0.919,0.352,1.736,0.885,2.453,1.602L237.426,160.527z"/>
		<path fill="#FFFFFF" d="M244.752,173.477h-1.612v-15.859h1.612V173.477z"/>
		<path fill="#FFFFFF" d="M254.138,173.477h-1.613v-14.381h-5.31v-1.479h12.231v1.479h-5.31L254.138,173.477L254.138,173.477z"/>
		<path fill="#FFFFFF" d="M260.12,173.477h-1.883l6.898-15.859h1.568l6.898,15.859h-1.881l-1.748-4.166h-8.107L260.12,173.477z
			 M262.472,167.831h6.876l-3.428-8.333L262.472,167.831z"/>
		<path fill="#FFFFFF" d="M277.368,171.997h7.393v1.479h-9.006v-15.859h1.613V171.997z"/>
	</g>
</g>
</svg>
