<?xml version="1.0" encoding="utf-8"?>
<!-- Generator: Adobe Illustrator 16.0.0, SVG Export Plug-In . SVG Version: 6.00 Build 0)  -->
<!DOCTYPE svg PUBLIC "-//W3C//DTD SVG 1.1//EN" "http://www.w3.org/Graphics/SVG/1.1/DTD/svg11.dtd">
<svg version="1.1" xmlns="http://www.w3.org/2000/svg" xmlns:xlink="http://www.w3.org/1999/xlink" x="0px" y="0px" width="425.2px"
	 height="208px" viewBox="0 0 425.2 208" enable-background="new 0 0 425.2 208" xml:space="preserve">
<g id="Layer_1">
	<polygon fill="#AD073D" points="309.741,5.154 309.741,53.383 309.741,53.383 358.076,101.613 358.076,53.383 	"/>
	<rect x="309.814" y="101.45" fill="#B31AAB" width="48.262" height="48.263"/>
	<polygon fill="#C4D600" points="358.076,53.384 358.076,149.713 406.241,101.548 	"/>
	<polygon fill="#57C1E8" points="358.078,149.696 309.812,149.696 309.812,198.062 	"/>
	<polygon fill="#AD073D" points="309.741,5.154 309.741,53.383 309.741,53.383 358.076,101.613 358.076,53.383 	"/>
	<rect x="309.815" y="101.45" fill="#B31AAB" width="48.263" height="48.263"/>
	<polygon fill="#C4D600" points="358.076,53.384 358.076,149.713 406.241,101.548 	"/>
	<polygon fill="#57C1E8" points="358.078,149.696 309.812,149.696 309.812,198.062 	"/>
	<g>
		<path fill="#FFFFFF" d="M56.158,113.386c-1.151-1.758-2.757-3.246-4.82-4.465c-2.064-1.218-4.413-1.826-7.051-1.826
			c-2.774-0.067-5.26,0.373-7.458,1.319c-2.199,0.948-4.076,2.267-5.631,3.957c-1.557,1.691-2.739,3.703-3.551,6.037
			c-0.812,2.334-1.218,4.854-1.218,7.56c0,2.706,0.406,5.225,1.218,7.559c0.812,2.334,1.994,4.348,3.551,6.037
			c1.556,1.691,3.433,3.011,5.631,3.957c2.198,0.948,4.684,1.387,7.458,1.319c2.638,0,4.987-0.609,7.051-1.826
			c2.063-1.218,3.669-2.705,4.82-4.465l5.479,4.16c-2.369,2.773-5.04,4.819-8.016,6.139c-2.978,1.318-6.088,2.012-9.334,2.079
			c-3.855,0.066-7.34-0.524-10.451-1.774c-3.112-1.251-5.767-2.993-7.965-5.227c-2.199-2.231-3.873-4.886-5.022-7.965
			c-1.151-3.077-1.725-6.408-1.725-9.993s0.574-6.916,1.725-9.994c1.149-3.077,2.824-5.733,5.022-7.966
			c2.198-2.232,4.853-3.973,7.965-5.225c3.111-1.251,6.596-1.842,10.451-1.775c3.247,0.068,6.357,0.761,9.334,2.079
			c2.976,1.319,5.647,3.366,8.016,6.138L56.158,113.386z"/>
		<path fill="#FFFFFF" d="M76.146,149.71h-6.696V73.003h6.696V149.71z"/>
		<path fill="#FFFFFF" d="M99.481,83.962c0,1.419-0.508,2.587-1.522,3.5c-1.015,0.913-2.131,1.37-3.349,1.37
			c-1.217,0-2.334-0.457-3.348-1.37c-1.015-0.913-1.522-2.081-1.522-3.5c0-1.421,0.507-2.588,1.522-3.501
			c1.014-0.913,2.131-1.37,3.348-1.37c1.218,0,2.334,0.457,3.349,1.37C98.974,81.374,99.481,82.541,99.481,83.962z M97.959,149.71
			h-6.697v-47.485h6.697V149.71z"/>
		<path fill="#FFFFFF" d="M146.153,113.386c-1.151-1.758-2.757-3.246-4.82-4.465c-2.064-1.218-4.413-1.826-7.052-1.826
			c-2.774-0.067-5.26,0.373-7.458,1.319c-2.199,0.948-4.076,2.267-5.631,3.957c-1.557,1.691-2.739,3.703-3.551,6.037
			c-0.812,2.334-1.218,4.854-1.218,7.56c0,2.706,0.406,5.225,1.218,7.559c0.812,2.334,1.994,4.348,3.551,6.037
			c1.556,1.691,3.433,3.011,5.631,3.957c2.198,0.948,4.684,1.387,7.458,1.319c2.639,0,4.988-0.609,7.052-1.826
			c2.063-1.218,3.668-2.705,4.82-4.465l5.479,4.16c-2.369,2.773-5.04,4.819-8.016,6.139c-2.978,1.318-6.088,2.012-9.335,2.079
			c-3.855,0.066-7.339-0.524-10.451-1.774c-3.112-1.251-5.767-2.993-7.965-5.227c-2.199-2.231-3.873-4.886-5.022-7.965
			c-1.151-3.077-1.725-6.408-1.725-9.993s0.574-6.916,1.725-9.994c1.149-3.077,2.823-5.733,5.022-7.966
			c2.198-2.232,4.853-3.973,7.965-5.225c3.111-1.251,6.596-1.842,10.451-1.775c3.247,0.068,6.357,0.761,9.335,2.079
			c2.976,1.319,5.647,3.366,8.016,6.138L146.153,113.386z"/>
		<path fill="#FFFFFF" d="M164.619,123.634l22.423-21.409h10.045l-23.641,21.713l26.178,25.772h-10.35l-24.655-24.96v24.96h-6.697
			V73.003h6.697V123.634z"/>
		<path fill="#FFFFFF" d="M208.958,127.794c0.203,2.368,0.776,4.601,1.725,6.696c0.947,2.098,2.197,3.906,3.754,5.428
			c1.555,1.521,3.348,2.724,5.377,3.603c2.029,0.88,4.228,1.319,6.595,1.319c3.586,0,6.681-0.828,9.284-2.485
			c2.604-1.657,4.581-3.568,5.937-5.733l5.174,4.261c-2.841,3.587-5.97,6.157-9.386,7.711c-3.415,1.557-7.086,2.334-11.009,2.334
			c-3.517,0-6.782-0.626-9.79-1.876c-3.011-1.251-5.599-2.993-7.762-5.227c-2.166-2.231-3.873-4.869-5.124-7.913
			c-1.252-3.044-1.877-6.358-1.877-9.943s0.609-6.899,1.827-9.944c1.217-3.044,2.907-5.682,5.073-7.914
			c2.165-2.232,4.701-3.973,7.61-5.225c2.907-1.251,6.053-1.876,9.436-1.876c3.585,0,6.798,0.643,9.64,1.927
			c2.842,1.286,5.225,2.994,7.153,5.124c1.928,2.132,3.398,4.635,4.413,7.509c1.015,2.876,1.522,5.936,1.522,9.183v3.044H208.958z
			 M241.223,122.314c0-4.531-1.354-8.201-4.058-11.009c-2.707-2.806-6.493-4.211-11.364-4.211c-2.165,0-4.262,0.424-6.29,1.269
			c-2.03,0.847-3.806,1.979-5.327,3.399c-1.522,1.42-2.739,3.043-3.653,4.87c-0.913,1.826-1.369,3.721-1.369,5.682H241.223z"/>
		<path fill="#FFFFFF" d="M258.878,117.039c0-2.096-0.051-4.227-0.152-6.393c-0.102-2.164-0.187-4.973-0.254-8.422h6.595v8.828
			h0.204c0.472-1.285,1.149-2.52,2.028-3.704c0.879-1.183,1.944-2.248,3.196-3.196c1.251-0.946,2.706-1.707,4.363-2.283
			c1.656-0.573,3.534-0.861,5.632-0.861c1.893,0,3.551,0.202,4.972,0.608l-1.319,6.595c-0.88-0.338-2.166-0.508-3.855-0.508
			c-2.572,0-4.77,0.492-6.595,1.473c-1.827,0.981-3.349,2.231-4.566,3.753c-1.218,1.522-2.115,3.163-2.689,4.922
			c-0.575,1.759-0.862,3.449-0.862,5.073v26.786h-6.696V117.039z"/>
	</g>
	<g>
		<path fill="#AD073D" d="M287.427,76.86h0.456c0.295,0,0.583-0.027,0.862-0.081c0.279-0.054,0.527-0.148,0.743-0.282
			c0.217-0.132,0.391-0.312,0.523-0.54c0.132-0.227,0.198-0.508,0.198-0.843c0-0.266-0.049-0.505-0.146-0.717
			c-0.099-0.212-0.233-0.392-0.405-0.54s-0.368-0.264-0.589-0.348c-0.222-0.083-0.455-0.125-0.7-0.125
			c-0.441,0-0.817,0.113-1.126,0.339c-0.31,0.226-0.543,0.54-0.7,0.942l-1.296-0.457c0.256-0.628,0.665-1.122,1.229-1.48
			c0.565-0.358,1.215-0.538,1.952-0.538c0.432,0,0.842,0.062,1.229,0.185c0.387,0.123,0.728,0.302,1.019,0.538
			c0.291,0.236,0.522,0.531,0.692,0.885s0.255,0.763,0.255,1.225c0,0.295-0.047,0.57-0.14,0.826
			c-0.094,0.256-0.221,0.487-0.383,0.694c-0.162,0.206-0.356,0.383-0.582,0.531s-0.472,0.255-0.736,0.324v0.03
			c0.305,0.059,0.587,0.162,0.847,0.309c0.261,0.147,0.483,0.331,0.67,0.552s0.334,0.473,0.442,0.757
			c0.107,0.284,0.162,0.593,0.162,0.926c0,0.52-0.098,0.979-0.292,1.375s-0.452,0.729-0.773,0.993s-0.692,0.466-1.114,0.603
			s-0.854,0.206-1.296,0.206c-0.825,0-1.552-0.187-2.181-0.56c-0.628-0.373-1.084-0.952-1.369-1.738l1.326-0.441
			c0.156,0.451,0.424,0.819,0.802,1.104s0.842,0.427,1.393,0.427c0.265,0,0.522-0.042,0.772-0.125s0.474-0.208,0.671-0.376
			c0.195-0.167,0.353-0.373,0.471-0.618c0.118-0.246,0.177-0.535,0.177-0.87c0-0.363-0.079-0.667-0.235-0.913
			c-0.157-0.245-0.361-0.444-0.611-0.596c-0.251-0.152-0.533-0.261-0.848-0.325c-0.313-0.063-0.623-0.096-0.927-0.096h-0.442V76.86z
			"/>
		<path fill="#AD073D" d="M296.454,76.654l0.016,0.03c0.146-0.088,0.344-0.157,0.589-0.206s0.48-0.074,0.707-0.074
			c0.451,0,0.876,0.081,1.273,0.243s0.744,0.388,1.039,0.678c0.294,0.29,0.524,0.636,0.691,1.038
			c0.167,0.403,0.251,0.839,0.251,1.311c0,0.521-0.091,0.994-0.272,1.421s-0.435,0.792-0.759,1.097
			c-0.324,0.305-0.704,0.541-1.142,0.708c-0.437,0.167-0.91,0.25-1.421,0.25c-0.521,0-1.002-0.086-1.443-0.257
			c-0.442-0.172-0.822-0.41-1.142-0.714c-0.318-0.304-0.569-0.668-0.751-1.09c-0.182-0.422-0.272-0.878-0.272-1.37
			c0-0.57,0.093-1.085,0.279-1.547c0.187-0.461,0.433-0.933,0.737-1.414l2.724-4.301h1.694L296.454,76.654z M295.262,79.732
			c0,0.305,0.052,0.592,0.154,0.862c0.104,0.271,0.251,0.503,0.442,0.7s0.42,0.354,0.685,0.471c0.265,0.118,0.56,0.177,0.884,0.177
			s0.616-0.054,0.876-0.162c0.261-0.108,0.486-0.263,0.678-0.464s0.339-0.437,0.442-0.707c0.103-0.27,0.154-0.567,0.154-0.891
			c0-0.314-0.052-0.604-0.154-0.869c-0.104-0.266-0.246-0.496-0.428-0.692s-0.405-0.348-0.67-0.457
			c-0.266-0.108-0.56-0.162-0.884-0.162s-0.621,0.054-0.892,0.162c-0.27,0.108-0.5,0.26-0.691,0.457s-0.339,0.427-0.442,0.692
			C295.313,79.114,295.262,79.408,295.262,79.732z"/>
		<path fill="#AD073D" d="M306.204,72.191c0.618,0,1.151,0.142,1.598,0.427c0.447,0.285,0.815,0.675,1.105,1.171
			c0.289,0.496,0.502,1.078,0.64,1.745c0.138,0.668,0.207,1.38,0.207,2.136c0,0.766-0.069,1.48-0.207,2.143
			c-0.138,0.662-0.351,1.242-0.64,1.738c-0.29,0.496-0.658,0.886-1.105,1.17c-0.446,0.285-0.979,0.427-1.598,0.427
			s-1.154-0.142-1.605-0.427c-0.452-0.285-0.822-0.675-1.112-1.17c-0.289-0.496-0.503-1.076-0.64-1.738
			c-0.138-0.663-0.207-1.377-0.207-2.143c0-0.756,0.069-1.468,0.207-2.136c0.137-0.667,0.351-1.249,0.64-1.745
			c0.29-0.496,0.66-0.886,1.112-1.171C305.05,72.333,305.586,72.191,306.204,72.191z M306.204,73.385
			c-0.433,0-0.786,0.14-1.061,0.419c-0.275,0.28-0.488,0.633-0.641,1.061s-0.258,0.891-0.316,1.392
			c-0.06,0.501-0.089,0.972-0.089,1.414s0.029,0.913,0.089,1.414c0.059,0.501,0.164,0.963,0.316,1.385s0.365,0.773,0.641,1.053
			c0.274,0.279,0.628,0.419,1.061,0.419c0.422,0,0.769-0.14,1.038-0.419c0.271-0.28,0.483-0.631,0.641-1.053
			s0.266-0.884,0.324-1.385s0.088-0.972,0.088-1.414s-0.029-0.913-0.088-1.414c-0.059-0.5-0.167-0.964-0.324-1.392
			s-0.37-0.78-0.641-1.061C306.973,73.524,306.626,73.385,306.204,73.385z"/>
	</g>
	<g>
		<path fill="#FFFFFF" d="M69.449,157.616h3.203l5.04,12.007h0.09l4.995-12.007h3.204v15.859H83.83v-13.037h-0.045l-5.354,13.037
			h-1.434l-5.354-13.037H71.6v13.037h-2.151V157.616z"/>
		<path fill="#FFFFFF" d="M94.313,157.616h1.949l6.787,15.859h-2.508l-1.59-3.92h-7.549l-1.567,3.92h-2.509L94.313,157.616z
			 M98.166,167.675l-2.957-7.28h-0.044l-3.002,7.28H98.166z"/>
		<path fill="#FFFFFF" d="M104.55,157.616h5.578c1.015,0,1.851,0.139,2.509,0.414c0.657,0.276,1.176,0.628,1.557,1.055
			c0.38,0.424,0.645,0.901,0.794,1.432s0.224,1.041,0.224,1.535c0,0.508-0.089,0.996-0.269,1.469
			c-0.179,0.469-0.437,0.894-0.773,1.275c-0.336,0.381-0.747,0.703-1.232,0.964c-0.486,0.261-1.027,0.422-1.624,0.48l4.502,7.235
			h-2.688l-4.032-6.988h-2.396v6.988h-2.15V157.616z M106.701,164.605h2.822c0.418,0,0.833-0.033,1.243-0.101
			c0.411-0.068,0.776-0.191,1.097-0.371c0.321-0.179,0.579-0.437,0.773-0.772c0.193-0.335,0.291-0.771,0.291-1.31
			s-0.098-0.975-0.291-1.311c-0.194-0.335-0.452-0.594-0.773-0.773c-0.321-0.179-0.687-0.303-1.097-0.369
			c-0.411-0.067-0.825-0.101-1.243-0.101h-2.822V164.605z"/>
		<path fill="#FFFFFF" d="M117.677,157.616h2.15v6.855h0.179l7.011-6.855h3.001l-7.661,7.325l8.176,8.534h-3.136l-7.392-7.93h-0.179
			v7.93h-2.15V157.616z"/>
		<path fill="#FFFFFF" d="M131.632,157.616h10.237v2.016h-8.086v4.727h7.526v2.017h-7.526v5.084h8.49v2.017h-10.64V157.616z"/>
		<path fill="#FFFFFF" d="M148.074,159.632h-5.107v-2.016h12.365v2.016h-5.107v13.844h-2.151V159.632z"/>
		<path fill="#FFFFFF" d="M157.056,157.616h2.15v15.859h-2.15V157.616z"/>
		<path fill="#FFFFFF" d="M162.724,157.616h2.822l8.736,13.037h0.045v-13.037h2.15v15.859h-2.732l-8.826-13.037h-0.045v13.037h-2.15
			V157.616z"/>
		<path fill="#FFFFFF" d="M193.501,164.605v7.816c-0.389,0.241-0.829,0.449-1.322,0.628c-0.492,0.18-1.004,0.332-1.534,0.46
			c-0.531,0.126-1.068,0.22-1.613,0.28c-0.545,0.059-1.056,0.089-1.534,0.089c-1.345,0-2.542-0.225-3.595-0.672
			s-1.941-1.052-2.666-1.814c-0.725-0.761-1.277-1.646-1.658-2.654c-0.38-1.008-0.571-2.072-0.571-3.192
			c0-1.179,0.205-2.276,0.616-3.292s0.978-1.897,1.703-2.645c0.724-0.746,1.594-1.332,2.61-1.757
			c1.015-0.427,2.128-0.639,3.337-0.639c1.464,0,2.657,0.183,3.584,0.547c0.926,0.367,1.703,0.871,2.33,1.513l-1.523,1.635
			c-0.658-0.627-1.352-1.063-2.083-1.31c-0.733-0.247-1.501-0.369-2.308-0.369c-0.911,0-1.732,0.168-2.464,0.504
			s-1.359,0.788-1.882,1.354c-0.522,0.569-0.925,1.236-1.209,2.005c-0.284,0.77-0.426,1.587-0.426,2.453
			c0,0.896,0.157,1.729,0.471,2.498c0.313,0.77,0.746,1.438,1.299,2.005c0.552,0.568,1.202,1.012,1.948,1.332
			c0.747,0.321,1.56,0.483,2.442,0.483c0.761,0,1.482-0.072,2.162-0.214c0.68-0.143,1.258-0.348,1.736-0.616v-4.413h-3.517v-2.016
			H193.501z"/>
		<path fill="#FFFFFF" d="M202.976,157.616h5.264c0.985,0,1.975,0.165,2.969,0.494c0.993,0.327,1.889,0.824,2.688,1.488
			c0.799,0.665,1.444,1.493,1.938,2.487c0.493,0.992,0.739,2.146,0.739,3.46c0,1.33-0.246,2.487-0.739,3.473
			s-1.139,1.81-1.938,2.476c-0.799,0.664-1.695,1.161-2.688,1.488c-0.994,0.33-1.983,0.493-2.969,0.493h-5.264V157.616z
			 M204.588,171.997h3.137c1.209,0,2.258-0.183,3.147-0.55c0.888-0.364,1.626-0.85,2.217-1.454c0.59-0.605,1.027-1.292,1.311-2.062
			c0.283-0.769,0.425-1.563,0.425-2.385s-0.142-1.615-0.425-2.386c-0.284-0.77-0.721-1.455-1.311-2.061
			c-0.59-0.604-1.329-1.091-2.217-1.457c-0.89-0.363-1.938-0.547-3.147-0.547h-3.137V171.997z"/>
		<path fill="#FFFFFF" d="M221.411,173.476h-1.613v-15.859h1.613V173.476z"/>
		<path fill="#FFFFFF" d="M237.427,160.528c-0.536-0.566-1.179-1.016-1.926-1.344s-1.612-0.493-2.598-0.493
			c-1.017,0-1.927,0.188-2.734,0.56c-0.806,0.375-1.489,0.875-2.049,1.502c-0.561,0.627-0.989,1.354-1.288,2.184
			c-0.299,0.828-0.448,1.699-0.448,2.609c0,0.911,0.149,1.78,0.448,2.609c0.299,0.83,0.728,1.558,1.288,2.185
			c0.56,0.627,1.243,1.127,2.049,1.502c0.808,0.372,1.718,0.559,2.734,0.559c0.82,0,1.608-0.101,2.362-0.303
			c0.754-0.201,1.431-0.473,2.027-0.816v-5.311h-3.785v-1.477h5.397v7.771c-0.895,0.522-1.878,0.923-2.945,1.199
			c-1.067,0.275-2.087,0.414-3.057,0.414c-1.181,0-2.275-0.209-3.282-0.627c-1.008-0.418-1.882-0.997-2.62-1.735
			c-0.739-0.74-1.319-1.618-1.737-2.633s-0.626-2.128-0.626-3.338s0.208-2.322,0.626-3.338c0.418-1.015,0.998-1.894,1.737-2.632
			c0.738-0.739,1.612-1.318,2.62-1.735c1.007-0.419,2.102-0.627,3.282-0.627c1.269,0,2.362,0.175,3.28,0.525
			c0.919,0.352,1.737,0.885,2.454,1.602L237.427,160.528z"/>
		<path fill="#FFFFFF" d="M244.753,173.476h-1.613v-15.859h1.613V173.476z"/>
		<path fill="#FFFFFF" d="M254.138,173.476h-1.613v-14.38h-5.309v-1.479h12.231v1.479h-5.31V173.476z"/>
		<path fill="#FFFFFF" d="M260.119,173.476h-1.882l6.898-15.859h1.568l6.899,15.859h-1.881l-1.748-4.166h-8.108L260.119,173.476z
			 M262.472,167.831h6.876l-3.428-8.333L262.472,167.831z"/>
		<path fill="#FFFFFF" d="M277.367,171.997h7.393v1.479h-9.006v-15.859h1.613V171.997z"/>
	</g>
</g>
<g id="Logo_Blanco" display="none">
	<polygon display="inline" fill="#AD073D" points="309.741,5.154 309.741,53.383 309.741,53.383 358.076,101.613 358.076,53.383 	
		"/>
	<rect x="309.814" y="101.45" display="inline" fill="#B31AAB" width="48.262" height="48.263"/>
	<polygon display="inline" fill="#C4D600" points="358.076,53.384 358.076,149.713 406.241,101.548 	"/>
	<polygon display="inline" fill="#57C1E8" points="358.078,149.696 309.812,149.696 309.812,198.062 	"/>
	<polygon display="inline" fill="#AD073D" points="309.741,5.154 309.741,53.383 309.741,53.383 358.076,101.613 358.076,53.383 	
		"/>
	<rect x="309.815" y="101.45" display="inline" fill="#B31AAB" width="48.263" height="48.263"/>
	<polygon display="inline" fill="#C4D600" points="358.076,53.384 358.076,149.713 406.241,101.548 	"/>
	<polygon display="inline" fill="#57C1E8" points="358.078,149.696 309.812,149.696 309.812,198.062 	"/>
	<g display="inline">
		<path fill="#FFFFFF" d="M56.158,113.386c-1.151-1.758-2.757-3.246-4.82-4.465c-2.064-1.218-4.413-1.826-7.051-1.826
			c-2.774-0.067-5.26,0.373-7.458,1.319c-2.199,0.948-4.076,2.267-5.631,3.957c-1.557,1.691-2.739,3.703-3.551,6.037
			c-0.812,2.334-1.218,4.854-1.218,7.56c0,2.706,0.406,5.225,1.218,7.559c0.812,2.334,1.994,4.348,3.551,6.037
			c1.556,1.691,3.433,3.011,5.631,3.957c2.198,0.948,4.684,1.387,7.458,1.319c2.638,0,4.987-0.609,7.051-1.826
			c2.063-1.218,3.669-2.705,4.82-4.465l5.479,4.16c-2.369,2.773-5.04,4.819-8.016,6.139c-2.978,1.318-6.088,2.012-9.334,2.079
			c-3.855,0.066-7.34-0.524-10.451-1.774c-3.112-1.251-5.767-2.993-7.965-5.227c-2.199-2.231-3.873-4.886-5.022-7.965
			c-1.151-3.077-1.725-6.408-1.725-9.993s0.574-6.916,1.725-9.994c1.149-3.077,2.824-5.733,5.022-7.966
			c2.198-2.232,4.853-3.973,7.965-5.225c3.111-1.251,6.596-1.842,10.451-1.775c3.247,0.068,6.357,0.761,9.334,2.079
			c2.976,1.319,5.647,3.366,8.016,6.138L56.158,113.386z"/>
		<path fill="#FFFFFF" d="M76.146,149.71h-6.696V73.003h6.696V149.71z"/>
		<path fill="#FFFFFF" d="M99.481,83.962c0,1.419-0.508,2.587-1.522,3.5c-1.015,0.913-2.131,1.37-3.349,1.37
			c-1.217,0-2.334-0.457-3.348-1.37c-1.015-0.913-1.522-2.081-1.522-3.5c0-1.421,0.507-2.588,1.522-3.501
			c1.014-0.913,2.131-1.37,3.348-1.37c1.218,0,2.334,0.457,3.349,1.37C98.974,81.374,99.481,82.541,99.481,83.962z M97.959,149.71
			h-6.697v-47.485h6.697V149.71z"/>
		<path fill="#FFFFFF" d="M146.153,113.386c-1.151-1.758-2.757-3.246-4.82-4.465c-2.064-1.218-4.413-1.826-7.052-1.826
			c-2.774-0.067-5.26,0.373-7.458,1.319c-2.199,0.948-4.076,2.267-5.631,3.957c-1.557,1.691-2.739,3.703-3.551,6.037
			c-0.812,2.334-1.218,4.854-1.218,7.56c0,2.706,0.406,5.225,1.218,7.559c0.812,2.334,1.994,4.348,3.551,6.037
			c1.556,1.691,3.433,3.011,5.631,3.957c2.198,0.948,4.684,1.387,7.458,1.319c2.639,0,4.988-0.609,7.052-1.826
			c2.063-1.218,3.668-2.705,4.82-4.465l5.479,4.16c-2.369,2.773-5.04,4.819-8.016,6.139c-2.978,1.318-6.088,2.012-9.335,2.079
			c-3.855,0.066-7.339-0.524-10.451-1.774c-3.112-1.251-5.767-2.993-7.965-5.227c-2.199-2.231-3.873-4.886-5.022-7.965
			c-1.151-3.077-1.725-6.408-1.725-9.993s0.574-6.916,1.725-9.994c1.149-3.077,2.823-5.733,5.022-7.966
			c2.198-2.232,4.853-3.973,7.965-5.225c3.111-1.251,6.596-1.842,10.451-1.775c3.247,0.068,6.357,0.761,9.335,2.079
			c2.976,1.319,5.647,3.366,8.016,6.138L146.153,113.386z"/>
		<path fill="#FFFFFF" d="M164.619,123.634l22.423-21.409h10.045l-23.641,21.713l26.178,25.772h-10.35l-24.655-24.96v24.96h-6.697
			V73.003h6.697V123.634z"/>
		<path fill="#FFFFFF" d="M208.958,127.794c0.203,2.368,0.776,4.601,1.725,6.696c0.947,2.098,2.197,3.906,3.754,5.428
			c1.555,1.521,3.348,2.724,5.377,3.603c2.029,0.88,4.228,1.319,6.595,1.319c3.586,0,6.681-0.828,9.284-2.485
			c2.604-1.657,4.581-3.568,5.937-5.733l5.174,4.261c-2.841,3.587-5.97,6.157-9.386,7.711c-3.415,1.557-7.086,2.334-11.009,2.334
			c-3.517,0-6.782-0.626-9.79-1.876c-3.011-1.251-5.599-2.993-7.762-5.227c-2.166-2.231-3.873-4.869-5.124-7.913
			c-1.252-3.044-1.877-6.358-1.877-9.943s0.609-6.899,1.827-9.944c1.217-3.044,2.907-5.682,5.073-7.914
			c2.165-2.232,4.701-3.973,7.61-5.225c2.907-1.251,6.053-1.876,9.436-1.876c3.585,0,6.798,0.643,9.64,1.927
			c2.842,1.286,5.225,2.994,7.153,5.124c1.928,2.132,3.398,4.635,4.413,7.509c1.015,2.876,1.522,5.936,1.522,9.183v3.044H208.958z
			 M241.223,122.314c0-4.531-1.354-8.201-4.058-11.009c-2.707-2.806-6.493-4.211-11.364-4.211c-2.165,0-4.262,0.424-6.29,1.269
			c-2.03,0.847-3.806,1.979-5.327,3.399c-1.522,1.42-2.739,3.043-3.653,4.87c-0.913,1.826-1.369,3.721-1.369,5.682H241.223z"/>
		<path fill="#FFFFFF" d="M258.878,117.039c0-2.096-0.051-4.227-0.152-6.393c-0.102-2.164-0.187-4.973-0.254-8.422h6.595v8.828
			h0.204c0.472-1.285,1.149-2.52,2.028-3.704c0.879-1.183,1.944-2.248,3.196-3.196c1.251-0.946,2.706-1.707,4.363-2.283
			c1.656-0.573,3.534-0.861,5.632-0.861c1.893,0,3.551,0.202,4.972,0.608l-1.319,6.595c-0.88-0.338-2.166-0.508-3.855-0.508
			c-2.572,0-4.77,0.492-6.595,1.473c-1.827,0.981-3.349,2.231-4.566,3.753c-1.218,1.522-2.115,3.163-2.689,4.922
			c-0.575,1.759-0.862,3.449-0.862,5.073v26.786h-6.696V117.039z"/>
	</g>
	<g display="inline">
		<path fill="#AD073D" d="M287.427,76.86h0.456c0.295,0,0.583-0.027,0.862-0.081c0.279-0.054,0.527-0.148,0.743-0.282
			c0.217-0.132,0.391-0.312,0.523-0.54c0.132-0.227,0.198-0.508,0.198-0.843c0-0.266-0.049-0.505-0.146-0.717
			c-0.099-0.212-0.233-0.392-0.405-0.54s-0.368-0.264-0.589-0.348c-0.222-0.083-0.455-0.125-0.7-0.125
			c-0.441,0-0.817,0.113-1.126,0.339c-0.31,0.226-0.543,0.54-0.7,0.942l-1.296-0.457c0.256-0.628,0.665-1.122,1.229-1.48
			c0.565-0.358,1.215-0.538,1.952-0.538c0.432,0,0.842,0.062,1.229,0.185c0.387,0.123,0.728,0.302,1.019,0.538
			c0.291,0.236,0.522,0.531,0.692,0.885s0.255,0.763,0.255,1.225c0,0.295-0.047,0.57-0.14,0.826
			c-0.094,0.256-0.221,0.487-0.383,0.694c-0.162,0.206-0.356,0.383-0.582,0.531s-0.472,0.255-0.736,0.324v0.03
			c0.305,0.059,0.587,0.162,0.847,0.309c0.261,0.147,0.483,0.331,0.67,0.552s0.334,0.473,0.442,0.757
			c0.107,0.284,0.162,0.593,0.162,0.926c0,0.52-0.098,0.979-0.292,1.375s-0.452,0.729-0.773,0.993s-0.692,0.466-1.114,0.603
			s-0.854,0.206-1.296,0.206c-0.825,0-1.552-0.187-2.181-0.56c-0.628-0.373-1.084-0.952-1.369-1.738l1.326-0.441
			c0.156,0.451,0.424,0.819,0.802,1.104s0.842,0.427,1.393,0.427c0.265,0,0.522-0.042,0.772-0.125s0.474-0.208,0.671-0.376
			c0.195-0.167,0.353-0.373,0.471-0.618c0.118-0.246,0.177-0.535,0.177-0.87c0-0.363-0.079-0.667-0.235-0.913
			c-0.157-0.245-0.361-0.444-0.611-0.596c-0.251-0.152-0.533-0.261-0.848-0.325c-0.313-0.063-0.623-0.096-0.927-0.096h-0.442V76.86z
			"/>
		<path fill="#AD073D" d="M296.454,76.654l0.016,0.03c0.146-0.088,0.344-0.157,0.589-0.206s0.48-0.074,0.707-0.074
			c0.451,0,0.876,0.081,1.273,0.243s0.744,0.388,1.039,0.678c0.294,0.29,0.524,0.636,0.691,1.038
			c0.167,0.403,0.251,0.839,0.251,1.311c0,0.521-0.091,0.994-0.272,1.421s-0.435,0.792-0.759,1.097
			c-0.324,0.305-0.704,0.541-1.142,0.708c-0.437,0.167-0.91,0.25-1.421,0.25c-0.521,0-1.002-0.086-1.443-0.257
			c-0.442-0.172-0.822-0.41-1.142-0.714c-0.318-0.304-0.569-0.668-0.751-1.09c-0.182-0.422-0.272-0.878-0.272-1.37
			c0-0.57,0.093-1.085,0.279-1.547c0.187-0.461,0.433-0.933,0.737-1.414l2.724-4.301h1.694L296.454,76.654z M295.262,79.732
			c0,0.305,0.052,0.592,0.154,0.862c0.104,0.271,0.251,0.503,0.442,0.7s0.42,0.354,0.685,0.471c0.265,0.118,0.56,0.177,0.884,0.177
			s0.616-0.054,0.876-0.162c0.261-0.108,0.486-0.263,0.678-0.464s0.339-0.437,0.442-0.707c0.103-0.27,0.154-0.567,0.154-0.891
			c0-0.314-0.052-0.604-0.154-0.869c-0.104-0.266-0.246-0.496-0.428-0.692s-0.405-0.348-0.67-0.457
			c-0.266-0.108-0.56-0.162-0.884-0.162s-0.621,0.054-0.892,0.162c-0.27,0.108-0.5,0.26-0.691,0.457s-0.339,0.427-0.442,0.692
			C295.313,79.114,295.262,79.408,295.262,79.732z"/>
		<path fill="#AD073D" d="M306.204,72.191c0.618,0,1.151,0.142,1.598,0.427c0.447,0.285,0.815,0.675,1.105,1.171
			c0.289,0.496,0.502,1.078,0.64,1.745c0.138,0.668,0.207,1.38,0.207,2.136c0,0.766-0.069,1.48-0.207,2.143
			c-0.138,0.662-0.351,1.242-0.64,1.738c-0.29,0.496-0.658,0.886-1.105,1.17c-0.446,0.285-0.979,0.427-1.598,0.427
			s-1.154-0.142-1.605-0.427c-0.452-0.285-0.822-0.675-1.112-1.17c-0.289-0.496-0.503-1.076-0.64-1.738
			c-0.138-0.663-0.207-1.377-0.207-2.143c0-0.756,0.069-1.468,0.207-2.136c0.137-0.667,0.351-1.249,0.64-1.745
			c0.29-0.496,0.66-0.886,1.112-1.171C305.05,72.333,305.586,72.191,306.204,72.191z M306.204,73.385
			c-0.433,0-0.786,0.14-1.061,0.419c-0.275,0.28-0.488,0.633-0.641,1.061s-0.258,0.891-0.316,1.392
			c-0.06,0.501-0.089,0.972-0.089,1.414s0.029,0.913,0.089,1.414c0.059,0.501,0.164,0.963,0.316,1.385s0.365,0.773,0.641,1.053
			c0.274,0.279,0.628,0.419,1.061,0.419c0.422,0,0.769-0.14,1.038-0.419c0.271-0.28,0.483-0.631,0.641-1.053
			s0.266-0.884,0.324-1.385s0.088-0.972,0.088-1.414s-0.029-0.913-0.088-1.414c-0.059-0.5-0.167-0.964-0.324-1.392
			s-0.37-0.78-0.641-1.061C306.973,73.524,306.626,73.385,306.204,73.385z"/>
	</g>
	<g display="inline">
		<path fill="#FFFFFF" d="M69.449,157.616h3.203l5.04,12.007h0.09l4.995-12.007h3.204v15.859H83.83v-13.037h-0.045l-5.354,13.037
			h-1.434l-5.354-13.037H71.6v13.037h-2.151V157.616z"/>
		<path fill="#FFFFFF" d="M94.313,157.616h1.949l6.787,15.859h-2.508l-1.59-3.92h-7.549l-1.567,3.92h-2.509L94.313,157.616z
			 M98.166,167.675l-2.957-7.28h-0.044l-3.002,7.28H98.166z"/>
		<path fill="#FFFFFF" d="M104.55,157.616h5.578c1.015,0,1.851,0.139,2.509,0.414c0.657,0.276,1.176,0.628,1.557,1.055
			c0.38,0.424,0.645,0.901,0.794,1.432s0.224,1.041,0.224,1.535c0,0.508-0.089,0.996-0.269,1.469
			c-0.179,0.469-0.437,0.894-0.773,1.275c-0.336,0.381-0.747,0.703-1.232,0.964c-0.486,0.261-1.027,0.422-1.624,0.48l4.502,7.235
			h-2.688l-4.032-6.988h-2.396v6.988h-2.15V157.616z M106.701,164.605h2.822c0.418,0,0.833-0.033,1.243-0.101
			c0.411-0.068,0.776-0.191,1.097-0.371c0.321-0.179,0.579-0.437,0.773-0.772c0.193-0.335,0.291-0.771,0.291-1.31
			s-0.098-0.975-0.291-1.311c-0.194-0.335-0.452-0.594-0.773-0.773c-0.321-0.179-0.687-0.303-1.097-0.369
			c-0.411-0.067-0.825-0.101-1.243-0.101h-2.822V164.605z"/>
		<path fill="#FFFFFF" d="M117.677,157.616h2.15v6.855h0.179l7.011-6.855h3.001l-7.661,7.325l8.176,8.534h-3.136l-7.392-7.93h-0.179
			v7.93h-2.15V157.616z"/>
		<path fill="#FFFFFF" d="M131.632,157.616h10.237v2.016h-8.086v4.727h7.526v2.017h-7.526v5.084h8.49v2.017h-10.64V157.616z"/>
		<path fill="#FFFFFF" d="M148.074,159.632h-5.107v-2.016h12.365v2.016h-5.107v13.844h-2.151V159.632z"/>
		<path fill="#FFFFFF" d="M157.056,157.616h2.15v15.859h-2.15V157.616z"/>
		<path fill="#FFFFFF" d="M162.724,157.616h2.822l8.736,13.037h0.045v-13.037h2.15v15.859h-2.732l-8.826-13.037h-0.045v13.037h-2.15
			V157.616z"/>
		<path fill="#FFFFFF" d="M193.501,164.605v7.816c-0.389,0.241-0.829,0.449-1.322,0.628c-0.492,0.18-1.004,0.332-1.534,0.46
			c-0.531,0.126-1.068,0.22-1.613,0.28c-0.545,0.059-1.056,0.089-1.534,0.089c-1.345,0-2.542-0.225-3.595-0.672
			s-1.941-1.052-2.666-1.814c-0.725-0.761-1.277-1.646-1.658-2.654c-0.38-1.008-0.571-2.072-0.571-3.192
			c0-1.179,0.205-2.276,0.616-3.292s0.978-1.897,1.703-2.645c0.724-0.746,1.594-1.332,2.61-1.757
			c1.015-0.427,2.128-0.639,3.337-0.639c1.464,0,2.657,0.183,3.584,0.547c0.926,0.367,1.703,0.871,2.33,1.513l-1.523,1.635
			c-0.658-0.627-1.352-1.063-2.083-1.31c-0.733-0.247-1.501-0.369-2.308-0.369c-0.911,0-1.732,0.168-2.464,0.504
			s-1.359,0.788-1.882,1.354c-0.522,0.569-0.925,1.236-1.209,2.005c-0.284,0.77-0.426,1.587-0.426,2.453
			c0,0.896,0.157,1.729,0.471,2.498c0.313,0.77,0.746,1.438,1.299,2.005c0.552,0.568,1.202,1.012,1.948,1.332
			c0.747,0.321,1.56,0.483,2.442,0.483c0.761,0,1.482-0.072,2.162-0.214c0.68-0.143,1.258-0.348,1.736-0.616v-4.413h-3.517v-2.016
			H193.501z"/>
		<path fill="#FFFFFF" d="M202.976,157.616h5.264c0.985,0,1.975,0.165,2.969,0.494c0.993,0.327,1.889,0.824,2.688,1.488
			c0.799,0.665,1.444,1.493,1.938,2.487c0.493,0.992,0.739,2.146,0.739,3.46c0,1.33-0.246,2.487-0.739,3.473
			s-1.139,1.81-1.938,2.476c-0.799,0.664-1.695,1.161-2.688,1.488c-0.994,0.33-1.983,0.493-2.969,0.493h-5.264V157.616z
			 M204.588,171.997h3.137c1.209,0,2.258-0.183,3.147-0.55c0.888-0.364,1.626-0.85,2.217-1.454c0.59-0.605,1.027-1.292,1.311-2.062
			c0.283-0.769,0.425-1.563,0.425-2.385s-0.142-1.615-0.425-2.386c-0.284-0.77-0.721-1.455-1.311-2.061
			c-0.59-0.604-1.329-1.091-2.217-1.457c-0.89-0.363-1.938-0.547-3.147-0.547h-3.137V171.997z"/>
		<path fill="#FFFFFF" d="M221.411,173.476h-1.613v-15.859h1.613V173.476z"/>
		<path fill="#FFFFFF" d="M237.427,160.528c-0.536-0.566-1.179-1.016-1.926-1.344s-1.612-0.493-2.598-0.493
			c-1.017,0-1.927,0.188-2.734,0.56c-0.806,0.375-1.489,0.875-2.049,1.502c-0.561,0.627-0.989,1.354-1.288,2.184
			c-0.299,0.828-0.448,1.699-0.448,2.609c0,0.911,0.149,1.78,0.448,2.609c0.299,0.83,0.728,1.558,1.288,2.185
			c0.56,0.627,1.243,1.127,2.049,1.502c0.808,0.372,1.718,0.559,2.734,0.559c0.82,0,1.608-0.101,2.362-0.303
			c0.754-0.201,1.431-0.473,2.027-0.816v-5.311h-3.785v-1.477h5.397v7.771c-0.895,0.522-1.878,0.923-2.945,1.199
			c-1.067,0.275-2.087,0.414-3.057,0.414c-1.181,0-2.275-0.209-3.282-0.627c-1.008-0.418-1.882-0.997-2.62-1.735
			c-0.739-0.74-1.319-1.618-1.737-2.633s-0.626-2.128-0.626-3.338s0.208-2.322,0.626-3.338c0.418-1.015,0.998-1.894,1.737-2.632
			c0.738-0.739,1.612-1.318,2.62-1.735c1.007-0.419,2.102-0.627,3.282-0.627c1.269,0,2.362,0.175,3.28,0.525
			c0.919,0.352,1.737,0.885,2.454,1.602L237.427,160.528z"/>
		<path fill="#FFFFFF" d="M244.753,173.476h-1.613v-15.859h1.613V173.476z"/>
		<path fill="#FFFFFF" d="M254.138,173.476h-1.613v-14.38h-5.309v-1.479h12.231v1.479h-5.31V173.476z"/>
		<path fill="#FFFFFF" d="M260.119,173.476h-1.882l6.898-15.859h1.568l6.899,15.859h-1.881l-1.748-4.166h-8.108L260.119,173.476z
			 M262.472,167.831h6.876l-3.428-8.333L262.472,167.831z"/>
		<path fill="#FFFFFF" d="M277.367,171.997h7.393v1.479h-9.006v-15.859h1.613V171.997z"/>
	</g>
</g>
</svg>
